PathFileType	4	(X/Y/Z)	C:/Users/opensim2020/Desktop/walking_exp_matlab/subject06_walking14_straight_04.trc	
DataRate	CameraRate	NumFrames	NumMarkers	Units	OrigDataRate	OrigDataStartFrame	OrigNumFrames	
100.00	100.00	4	45	mm	100.00	3030	227	
Frame#	Time	LFHD			RFHD			LBHD			RBHD			C7			T10			CLAV			STRN			RBAK			LSHO			LUPA			LELB			LFRM			LWRA			LWRB			LFIN			RSHO			RUPA			RELB			RFRM			RWRA			RWRB			RFIN			LASI			RASI			LPSI			RPSI			LTHI			LKNE			LTIB			LANK			LHEE			LTOE			RTHI			RKNE			RTIB			RANK			RHEE			RTOE			*39			*40			*41			*42			*43			*44			
		X1	Y1	Z1	X2	Y2	Z2	X3	Y3	Z3	X4	Y4	Z4	X5	Y5	Z5	X6	Y6	Z6	X7	Y7	Z7	X8	Y8	Z8	X9	Y9	Z9	X10	Y10	Z10	X11	Y11	Z11	X12	Y12	Z12	X13	Y13	Z13	X14	Y14	Z14	X15	Y15	Z15	X16	Y16	Z16	X17	Y17	Z17	X18	Y18	Z18	X19	Y19	Z19	X20	Y20	Z20	X21	Y21	Z21	X22	Y22	Z22	X23	Y23	Z23	X24	Y24	Z24	X25	Y25	Z25	X26	Y26	Z26	X27	Y27	Z27	X28	Y28	Z28	X29	Y29	Z29	X30	Y30	Z30	X31	Y31	Z31	X32	Y32	Z32	X33	Y33	Z33	X34	Y34	Z34	X35	Y35	Z35	X36	Y36	Z36	X37	Y37	Z37	X38	Y38	Z38	X39	Y39	Z39	X40	Y40	Z40	X41	Y41	Z41	X42	Y42	Z42	X43	Y43	Z43	X44	Y44	Z44	X45	Y45	Z45	

114	1.130	-919.78699	-10.88890	1666.85071	-1051.64050	-14.76847	1658.82910	-924.29114	120.91096	1608.59875	-1053.53088	114.81793	1606.11536	-980.89734	115.53379	1451.31848	-992.66931	142.41574	1122.00122	-985.75262	2.66965	1377.97961	-983.07379	-41.44165	1203.23181	-1057.48547	188.20102	1281.76855	-822.34851	58.11667	1405.17493	-746.57489	31.53272	1205.67114	-730.69244	13.25309	1094.62964	-706.76782	-55.91743	961.72473	-748.67352	-149.91644	873.57379	-710.19861	-95.97446	849.22632	-706.35400	-163.56816	789.86304	-1145.83948	55.11337	1410.23499	-1229.34021	110.42902	1214.01331	-1241.44250	111.09763	1091.47913	-1260.02014	108.21275	971.32141	-1236.23230	59.04834	826.59265	-1269.50867	118.66527	833.36469	-1273.97021	92.48473	753.00500	-883.91693	-34.12775	964.78662	-1103.82446	-36.60280	971.43597	-913.85461	123.12711	990.90704	-1081.88684	115.43517	989.97015	-833.64307	49.20782	649.01599	-859.24011	64.73456	485.69086	-879.58423	120.40878	234.52249	-927.75110	138.25500	64.94000	-974.78748	176.51434	52.79207	-921.88104	-5.71604	35.23248	-1167.26746	-70.04943	649.28827	-1143.46692	-118.51412	533.18243	-1145.41394	-25.47438	287.93747	-1106.67041	37.63004	112.17844	-1059.13086	78.79076	93.20011	-1119.71948	-98.95598	46.83878	-981.03973	88.59383	1703.93481															 
115	1.140	-920.52820	-21.02169	1666.31555	-1052.32385	-24.92168	1658.04858	-924.89050	110.73933	1608.08630	-1054.05103	104.74347	1605.30420	-981.12299	105.62345	1450.70007	-992.77277	132.59357	1121.50073	-985.83887	-7.26163	1377.23047	-982.64227	-51.28865	1202.45532	-1057.39978	178.21561	1281.17297	-822.48016	48.19558	1404.82727	-746.35388	19.68006	1205.79663	-730.18152	-0.67114	1095.07678	-706.33075	-73.65205	964.32361	-748.07318	-170.98409	879.75195	-709.99182	-117.51316	853.23773	-706.12128	-187.26627	796.37006	-1145.97595	45.01387	1409.27014	-1229.01550	102.50877	1213.61340	-1241.23877	104.46270	1091.14258	-1260.03491	103.66093	970.99408	-1236.75159	57.05912	825.30530	-1269.98071	116.75151	833.39587	-1274.63611	91.90070	752.44971	-883.65820	-43.37227	963.60760	-1103.71814	-46.55479	970.88971	-914.17651	113.92714	990.38501	-1082.16174	105.57470	989.60834	-834.12244	42.53142	648.34314	-859.60522	59.99005	485.19214	-879.94940	118.14120	234.55818	-928.01373	137.87851	65.11617	-974.99280	176.29852	53.10676	-921.97552	-5.88456	35.17412	-1168.30884	-80.35672	649.37213	-1143.93677	-128.87857	533.37567	-1145.51221	-46.10724	283.86325	-1106.10291	7.00699	104.99299	-1058.32153	46.85984	84.14061	-1120.48096	-132.22830	45.69929	-981.81769	78.51211	1703.31238															 
116	1.150	-921.25507	-31.14937	1665.77734	-1053.05054	-34.94742	1657.16882	-925.46143	100.60627	1607.54871	-1054.61353	94.55492	1604.40576	-981.34381	95.51100	1450.04346	-992.87872	122.64915	1120.85693	-985.92828	-17.34671	1376.46582	-982.41296	-61.09364	1201.60059	-1057.24036	168.20596	1280.54944	-822.67450	38.32047	1404.40137	-746.29840	7.92930	1205.87732	-729.84595	-14.20798	1095.45520	-705.97882	-91.08087	966.96539	-747.89349	-191.08835	885.95917	-709.77698	-138.90860	857.35803	-706.02130	-210.35201	803.12750	-1146.18652	34.94133	1408.34900	-1228.76379	94.41846	1213.20703	-1241.11279	97.70650	1090.84644	-1260.09436	98.87563	970.72186	-1237.14075	54.50216	824.07916	-1270.35229	114.15202	833.27399	-1275.43152	90.88062	752.02332	-883.49683	-52.80667	962.38379	-1103.71350	-56.46698	970.18115	-914.55072	104.50362	989.72113	-1082.50037	95.73804	989.17346	-834.27930	35.90989	647.66272	-859.91760	55.11724	484.63791	-880.12335	115.92407	234.57922	-928.17200	137.52249	65.27478	-975.12305	176.09506	53.42816	-922.00537	-5.99279	35.11335	-1168.87170	-89.35435	648.83997	-1144.25525	-138.49641	533.04083	-1145.63550	-66.54199	279.93555	-1105.94189	-23.55488	98.17657	-1057.82800	14.78267	76.13365	-1121.01074	-165.44260	44.83575	-982.66052	68.39761	1702.63416															 
117	1.160	-922.07922	-41.28132	1665.19690	-1053.79431	-45.09926	1656.25098	-926.06226	90.41401	1606.91931	-1055.22058	84.45380	1603.48315	-981.66016	85.34971	1449.34338	-992.95758	112.68439	1120.11951	-986.12781	-27.40438	1375.60779	-982.23987	-70.94139	1200.63733	-1057.17834	158.11458	1279.87170	-822.96033	28.30716	1403.92456	-746.33154	-3.75019	1205.85388	-729.69220	-27.66022	1095.81812	-705.89038	-108.01878	969.64551	-747.57471	-211.24959	892.43469	-709.91461	-159.68944	861.73065	-706.11169	-233.00229	810.17419	-1146.45715	24.86579	1407.45825	-1228.96704	86.17763	1212.93262	-1240.96631	90.91095	1090.53735	-1260.26306	93.88306	970.51392	-1237.21252	53.44085	822.79785	-1270.88208	111.39840	833.37390	-1276.26953	89.36387	751.71698	-883.56860	-62.13821	960.99664	-1103.86108	-66.33104	969.38916	-914.88232	94.95703	989.02850	-1082.84998	85.92671	988.63281	-834.93951	28.74483	646.93475	-860.24493	50.13712	484.05338	-880.24170	113.60190	234.66130	-928.23059	137.11476	65.46037	-975.16937	175.91043	53.78193	-922.04962	-6.11878	35.07761	-1169.21033	-97.62537	647.75092	-1145.06213	-147.51788	532.39594	-1145.84802	-86.79921	276.17136	-1105.99792	-54.24261	92.33865	-1057.32275	-17.50567	68.75565	-1121.39380	-198.41139	44.35918	-983.50385	58.20414	1701.86755															 
